<svg width="27" height="33" viewBox="0 0 27 33" fill="none" xmlns="http://www.w3.org/2000/svg">
<g id="Group 2">
<path id="Vector 19" d="M17.2541 1H2V26.4559H17.2541C24.2496 26.3004 25.9985 21.7922 25.9985 19.5575C26.0762 15.3602 23.1808 13.5336 21.7234 13.145C24.6771 10.9686 24.8973 8.54608 24.6382 7.60686C24.6382 2.71001 19.7155 1.16193 17.2541 1Z" fill="#594EDC" stroke="#594EDC"/>
<path id="Vector 20" d="M8.99536 11.1046V6.05225H15.2136C16.3795 6.05225 17.8369 6.73236 17.8369 8.77272C17.8369 10.405 16.088 11.0074 15.2136 11.1046H8.99536Z" fill="white"/>
<path id="Vector 21" d="M9.09253 21.2095V16.1572H16.0624C17.6426 16.1572 19.0028 16.7402 19.0028 18.8777C19.0028 20.4323 17.7397 21.2095 16.0624 21.2095H9.09253Z" fill="white"/>
<path id="Vector 22" d="M2.19434 30.3667H24.9297" stroke="#594EDC" stroke-width="4" stroke-linecap="round"/>
</g>
</svg>
