<?xml version="1.0" standalone="no"?>
<!DOCTYPE svg PUBLIC "-//W3C//DTD SVG 20010904//EN"
 "http://www.w3.org/TR/2001/REC-SVG-20010904/DTD/svg10.dtd">
<svg version="1.0" xmlns="http://www.w3.org/2000/svg"
 width="1024.000000pt" height="1024.000000pt" viewBox="0 0 1024.000000 1024.000000"
 preserveAspectRatio="xMidYMid meet">

<g transform="translate(0.000000,1024.000000) scale(0.100000,-0.100000)"
fill="#000000" stroke="none">
<path d="M6212 9740 c-31 -29 -29 -76 4 -93 23 -12 24 -15 10 -26 -9 -8 -16
-18 -16 -24 0 -18 42 27 56 59 10 23 11 41 3 68 -11 41 -26 45 -57 16z"/>
<path d="M9820 9267 c0 -8 7 -18 16 -21 24 -9 64 -7 64 3 0 13 -8 17 -47 26
-26 5 -33 3 -33 -8z"/>
<path d="M9532 9146 c7 -7 19 -11 25 -9 7 3 13 0 13 -6 0 -6 7 -11 15 -11 12
0 11 4 -5 20 -23 23 -70 29 -48 6z"/>
<path d="M9232 9018 c-9 -11 -9 -15 1 -15 6 0 26 -4 42 -8 17 -3 43 -8 59 -11
16 -2 34 -8 40 -13 16 -13 76 -21 76 -10 0 5 -7 9 -15 9 -9 0 -20 11 -25 25
-9 23 -15 26 -57 25 -27 -1 -62 1 -79 5 -21 5 -34 2 -42 -7z"/>
<path d="M9511 8990 c-1 -8 -4 -25 -7 -37 -4 -13 -2 -23 4 -23 15 0 20 22 11
50 -4 14 -8 18 -8 10z"/>
<path d="M9465 8950 c-3 -5 -1 -10 4 -10 6 0 11 5 11 10 0 6 -2 10 -4 10 -3 0
-8 -4 -11 -10z"/>
<path d="M9542 8944 c-14 -16 -9 -20 38 -27 14 -2 33 -8 44 -12 12 -5 21 -3
27 6 6 11 0 15 -27 20 -19 3 -40 11 -47 18 -14 14 -19 14 -35 -5z"/>
<path d="M9790 8882 c0 -11 83 -32 125 -32 34 0 32 16 -2 25 -54 13 -123 17
-123 7z"/>
<path d="M9055 8830 c-3 -5 -1 -10 4 -10 6 0 11 5 11 10 0 6 -2 10 -4 10 -3 0
-8 -4 -11 -10z"/>
<path d="M9415 8750 c3 -5 10 -10 16 -10 5 0 9 5 9 10 0 6 -7 10 -16 10 -8 0
-12 -4 -9 -10z"/>
<path d="M9784 8708 c-3 -4 -2 -8 3 -8 4 -1 35 -3 68 -5 50 -4 56 -3 35 6 -31
13 -99 18 -106 7z"/>
<path d="M9380 8613 c0 -17 -6 -34 -12 -36 -7 -3 -4 -6 7 -7 18 -1 18 -2 2 -8
-9 -4 20 -9 65 -10 46 -2 111 -5 146 -8 44 -4 68 -2 79 8 12 9 15 9 9 1 -5 -9
2 -13 23 -13 21 0 31 5 31 15 0 8 -4 15 -10 15 -5 0 -10 -4 -10 -10 0 -5 -5
-10 -11 -10 -7 0 -4 11 6 28 l18 27 -23 -20 c-13 -11 -20 -15 -17 -8 9 15 -9
27 -18 13 -5 -8 -12 -7 -22 2 -9 7 -35 13 -58 14 -23 1 -47 4 -53 8 -13 8 -26
-10 -17 -23 3 -6 -4 -15 -16 -21 -15 -8 -19 -9 -15 -1 4 6 1 11 -6 11 -8 0 -6
5 5 11 28 16 20 29 -18 29 -19 0 -35 -4 -35 -10 0 -5 5 -10 12 -10 6 0 8 -3 5
-7 -11 -11 -58 -10 -53 2 2 5 9 9 15 8 6 -2 11 4 11 13 0 8 -5 12 -11 8 -6 -3
-15 0 -20 7 -6 10 -9 4 -9 -18z"/>
<path d="M9321 8611 c-11 -7 -9 -10 8 -16 22 -7 41 0 41 16 0 11 -30 12 -49 0z"/>
<path d="M9153 8563 c15 -2 37 -2 50 0 12 2 0 4 -28 4 -27 0 -38 -2 -22 -4z"/>
<path d="M9130 8453 c0 -5 -28 -8 -62 -8 l-63 1 -1 -38 0 -38 184 5 c101 3
188 8 194 11 7 5 8 2 3 -5 -6 -10 6 -12 51 -8 33 3 71 6 86 6 21 1 26 5 21 17
-3 9 0 20 7 24 8 5 0 8 -21 7 -25 -2 -33 2 -31 13 2 12 -1 11 -11 -2 -8 -10
-16 -16 -19 -13 -2 2 -18 5 -36 7 -18 1 -32 5 -32 8 0 3 -28 5 -63 5 -34 -1
-65 4 -69 10 -5 7 -8 7 -8 -1 0 -11 -101 -11 -119 1 -6 3 -11 2 -11 -2z"/>
<path d="M9572 8410 c0 -14 2 -19 5 -12 2 6 2 18 0 25 -3 6 -5 1 -5 -13z"/>
<path d="M9440 8275 c0 -17 -2 -17 -10 -5 -6 10 -10 11 -10 3 0 -7 -9 -13 -20
-13 -11 0 -20 -6 -20 -14 0 -13 -41 -26 -83 -26 -11 0 -26 -8 -33 -17 -9 -13
-13 -14 -14 -4 0 7 -6 11 -15 7 -8 -3 -15 -1 -15 4 0 6 9 10 20 10 12 0 20 7
20 18 0 13 -2 14 -9 3 -7 -11 -9 -11 -13 0 -4 12 -8 11 -23 -1 -17 -13 -18
-13 -10 0 6 12 6 13 -6 2 -12 -11 -12 -14 1 -22 18 -11 13 -16 -23 -25 -17 -5
-27 -3 -27 4 0 6 7 11 15 11 8 0 15 5 15 10 0 6 -23 10 -51 10 -38 0 -50 -3
-46 -13 3 -8 -3 -14 -15 -14 -25 -2 -32 -9 -25 -25 3 -9 19 -12 51 -10 29 3
44 8 39 15 -4 6 -1 7 7 2 20 -12 103 -8 290 16 190 24 190 24 190 40 0 7 -3
10 -6 6 -4 -3 -18 0 -33 7 -14 8 -39 15 -56 17 -16 2 -33 8 -37 14 -5 6 -8 4
-8 -5 0 -13 -1 -13 -10 0 -9 13 -10 13 -10 0 0 -13 -1 -13 -10 0 -8 12 -10 12
-10 -5z m-82 -72 c-10 -2 -28 -2 -40 0 -13 2 -5 4 17 4 22 1 32 -1 23 -4z"/>
<path d="M8801 8263 c5 -27 -3 -53 -16 -53 -8 0 -20 -9 -27 -20 -7 -11 -18
-20 -25 -20 -7 0 -13 -4 -13 -10 0 -5 -18 -10 -40 -10 -28 0 -40 -4 -40 -14 0
-8 3 -16 8 -19 4 -2 1 -2 -5 -1 -20 5 -43 -7 -43 -22 0 -8 -9 -14 -20 -14 -15
0 -20 -7 -20 -25 0 -18 -5 -25 -20 -25 -11 0 -20 -7 -20 -15 0 -8 -4 -15 -10
-15 -5 0 -10 -9 -10 -20 0 -13 -7 -20 -19 -20 -12 0 -21 -9 -25 -25 -5 -18
-13 -25 -31 -25 -16 0 -25 -6 -25 -15 0 -8 -9 -15 -20 -15 -13 0 -20 -7 -20
-19 0 -15 -10 -21 -40 -26 -23 -4 -40 -12 -40 -20 0 -8 -17 -16 -40 -20 -25
-4 -40 -12 -40 -21 0 -8 -4 -14 -10 -14 -5 0 -10 -9 -10 -20 0 -11 -4 -20 -10
-20 -5 0 -10 -9 -10 -20 0 -11 -4 -20 -9 -20 -5 0 -8 -8 -7 -17 1 -13 -7 -19
-26 -21 -20 -2 -28 -9 -28 -23 0 -10 -6 -19 -12 -19 -7 -1 1 -7 17 -14 17 -7
34 -11 39 -8 5 3 6 0 2 -6 -6 -11 10 -27 29 -27 6 0 10 -33 10 -80 0 -46 -4
-80 -10 -80 -5 -1 -26 -11 -45 -23 -27 -18 -45 -22 -80 -18 -69 7 -89 12 -97
21 -5 4 -1 4 7 0 13 -8 13 -7 1 8 -15 19 -26 23 -15 5 4 -7 3 -8 -5 -4 -6 4
-10 10 -8 14 2 4 1 30 -3 57 l-7 50 -2 -62 c-1 -58 1 -64 29 -85 20 -15 28
-28 25 -39 -9 -28 6 -89 21 -89 8 0 14 -9 14 -20 0 -18 7 -20 66 -20 60 0 68
3 94 30 17 18 38 30 54 30 14 0 26 5 26 10 0 6 54 10 141 10 90 0 138 -4 134
-10 -3 -6 1 -7 10 -4 13 5 13 9 3 22 -8 10 -9 13 -1 9 19 -12 45 4 40 25 -4
15 -1 18 14 13 21 -7 54 19 44 35 -3 6 4 10 18 10 14 0 28 7 31 16 3 8 10 13
15 10 5 -3 15 1 22 10 25 30 135 109 194 139 51 25 57 45 36 112 -10 32 -22
73 -26 91 -3 17 -10 32 -14 32 -3 0 -6 12 -5 27 0 15 -12 70 -27 122 -15 52
-26 97 -24 101 2 3 -4 35 -14 70 -10 36 -17 89 -16 118 1 29 -3 55 -7 58 -5 3
-8 2 -7 -3z"/>
<path d="M9341 8254 c0 -11 3 -14 6 -6 3 7 2 16 -1 19 -3 4 -6 -2 -5 -13z"/>
<path d="M9361 8254 c0 -11 3 -14 6 -6 3 7 2 16 -1 19 -3 4 -6 -2 -5 -13z"/>
<path d="M9018 8190 c-7 -24 -3 -38 8 -28 3 4 4 17 2 30 l-3 23 -7 -25z"/>
<path d="M9375 8093 c-11 -2 -42 -11 -70 -20 -66 -20 -84 -24 -123 -29 -19 -2
-47 -10 -64 -19 -17 -8 -35 -15 -40 -15 -5 0 -21 -12 -36 -26 l-27 -26 25 6
c14 3 29 6 33 6 5 0 6 3 4 8 -3 4 18 8 47 8 28 1 94 14 146 28 52 14 146 34
209 45 114 20 145 30 100 32 -86 4 -187 5 -204 2z"/>
<path d="M9360 7921 c0 -5 -8 -7 -18 -4 -10 2 -25 -3 -33 -13 -12 -16 -12 -17
1 -10 8 4 6 0 -4 -8 -20 -16 -20 -16 0 -16 21 0 64 34 64 50 0 6 -2 10 -5 10
-3 0 -5 -4 -5 -9z"/>
<path d="M9388 7923 c7 -3 16 -2 19 1 4 3 -2 6 -13 5 -11 0 -14 -3 -6 -6z"/>
<path d="M9240 7865 c0 -8 4 -15 10 -15 5 0 7 7 4 15 -4 8 -8 15 -10 15 -2 0
-4 -7 -4 -15z"/>
<path d="M9491 7649 c-13 -16 -30 -28 -37 -25 -7 3 -14 2 -16 -2 -2 -4 -25
-20 -51 -36 -40 -23 -46 -30 -36 -42 10 -12 9 -18 -4 -31 -9 -9 -20 -13 -24
-9 -4 4 1 14 12 22 19 14 19 14 -5 11 -39 -6 -33 -40 40 -237 18 -47 33 -89
34 -95 4 -20 68 -210 77 -230 25 -55 62 -207 76 -310 14 -105 22 -64 22 119 1
110 4 196 8 192 7 -7 22 -206 25 -346 l2 -75 3 68 c2 40 8 65 13 62 6 -4 10
16 11 47 0 29 3 47 6 41 2 -7 16 -13 29 -13 17 0 24 -6 24 -20 0 -11 -7 -20
-15 -20 -8 0 -15 -9 -15 -20 0 -11 7 -20 15 -20 8 0 15 -9 15 -20 0 -13 7 -20
20 -20 21 0 22 5 22 120 l0 45 10 -50 c5 -27 13 -210 17 -405 7 -343 7 -334 9
278 1 413 5 632 12 632 6 0 10 -101 10 -282 0 -155 2 -279 4 -277 2 2 6 121 9
264 3 143 9 268 13 278 3 10 13 16 20 13 15 -6 17 3 14 42 -1 12 3 22 9 22 7
0 11 24 11 60 0 53 -2 60 -20 60 -13 0 -20 7 -20 20 0 13 -7 20 -20 20 -17 0
-20 7 -20 40 0 33 -3 40 -20 40 -13 0 -20 7 -20 19 0 19 -34 31 -91 31 -16 0
-29 5 -29 10 0 6 -9 10 -20 10 -11 0 -20 -4 -20 -10 0 -5 -9 -10 -20 -10 -11
0 -20 7 -20 15 0 8 -9 15 -19 15 -12 0 -21 8 -23 20 -3 18 -6 17 -27 -11z"/>
<path d="M10161 7614 c0 -11 3 -14 6 -6 3 7 2 16 -1 19 -3 4 -6 -2 -5 -13z"/>
<path d="M10163 7525 c0 -38 2 -53 4 -32 2 20 2 52 0 70 -2 17 -4 1 -4 -38z"/>
<path d="M8055 7563 c26 -3 50 -14 68 -31 15 -14 27 -21 27 -15 0 25 -52 53
-94 51 l-41 -1 40 -4z"/>
<path d="M7965 7530 c-10 -11 -16 -22 -14 -24 2 -2 12 7 22 20 22 29 17 32 -8
4z"/>
<path d="M10195 7434 c4 -60 6 -161 4 -224 -11 -329 4 -3201 17 -3222 3 -4 9
-8 15 -8 5 0 9 647 9 1708 0 1495 -2 1711 -15 1736 -8 15 -15 46 -15 67 0 21
-5 41 -12 45 -8 5 -9 -20 -3 -102z"/>
<path d="M8151 7473 c-1 -34 -20 -83 -31 -83 -3 0 -15 -7 -26 -15 -17 -15 -16
-15 12 -1 36 17 57 61 51 102 -4 29 -4 29 -6 -3z"/>
<path d="M7941 7462 c-1 -33 31 -92 50 -92 5 0 0 9 -11 20 -11 11 -22 30 -24
42 -3 13 -7 32 -9 43 -3 11 -5 6 -6 -13z"/>
<path d="M9062 7105 c-29 -15 -19 -22 39 -30 35 -5 40 -4 26 5 -9 6 -14 16
-11 22 4 7 2 8 -4 4 -7 -4 -12 -2 -12 3 0 14 -8 13 -38 -4z"/>
<path d="M10165 5565 c0 -847 1 -1192 2 -767 2 426 2 1119 0 1540 -1 422 -2
74 -2 -773z"/>
<path d="M10003 6820 c0 -36 2 -50 4 -32 2 17 2 47 0 65 -2 17 -4 3 -4 -33z"/>
<path d="M9651 6694 c0 -11 3 -14 6 -6 3 7 2 16 -1 19 -3 4 -6 -2 -5 -13z"/>
<path d="M10000 6631 c0 -33 5 -63 10 -66 6 -4 10 16 10 54 0 33 -4 63 -10 66
-6 4 -10 -16 -10 -54z"/>
<path d="M10002 6275 c0 -151 4 -243 9 -220 11 58 10 448 -2 465 -6 10 -8 -78
-7 -245z"/>
<path d="M9570 6192 c0 -40 -5 -73 -12 -80 -7 -7 -8 -12 -3 -12 5 0 0 -7 -11
-15 -19 -14 -18 -14 3 -10 21 3 21 1 22 -143 1 -80 4 -148 6 -151 3 -2 5 104
5 237 0 133 -2 242 -5 242 -3 0 -5 -31 -5 -68z"/>
<path d="M9005 6060 c-18 -6 -16 -8 10 -13 17 -4 39 -5 50 -3 11 3 23 5 28 5
4 1 7 5 7 10 0 11 -67 12 -95 1z"/>
<path d="M9772 5945 c0 -16 2 -22 5 -12 2 9 2 23 0 30 -3 6 -5 -1 -5 -18z"/>
<path d="M9768 3848 c-2 -526 -6 -672 -15 -676 -18 -5 -16 -32 1 -32 11 0 14
-20 15 -86 0 -48 3 -89 6 -92 3 -3 5 346 5 776 0 430 -2 782 -4 782 -2 0 -6
-302 -8 -672z"/>
<path d="M9569 4158 c0 -145 -3 -257 -6 -250 -7 17 -107 16 -121 -1 -13 -15
-5 -56 14 -74 15 -15 64 -17 64 -3 0 6 11 10 24 10 20 0 25 -6 29 -32 2 -18 5
112 5 290 1 177 0 322 -3 322 -3 0 -5 -118 -6 -262z"/>
<path d="M10156 3053 c-2 -505 -3 -938 -2 -963 0 -25 1 -124 1 -220 -1 -175
-1 -175 -32 -241 -17 -36 -52 -91 -77 -122 l-46 -56 1 -278 c2 -272 4 -284 25
-115 5 36 8 42 30 42 13 0 24 -4 24 -10 0 -5 18 -10 40 -10 l39 0 3 -152 c2
-84 4 566 6 1445 1 878 0 1597 -3 1597 -3 0 -7 -413 -9 -917z"/>
<path d="M10206 3929 c-9 -48 -7 -182 4 -199 9 -13 10 -13 10 0 0 13 1 13 10
0 7 -10 10 25 10 108 0 97 -3 122 -14 122 -7 0 -16 -14 -20 -31z"/>
<path d="M9572 3745 c0 -16 2 -22 5 -12 2 9 2 23 0 30 -3 6 -5 -1 -5 -18z"/>
<path d="M9020 3733 c0 -22 -5 -33 -14 -33 -22 0 -87 -82 -84 -105 1 -11 -1
-26 -5 -32 -6 -10 3 -13 37 -13 101 0 152 112 86 191 l-19 24 -1 -32z"/>
<path d="M9572 3680 c0 -14 2 -19 5 -12 2 6 2 18 0 25 -3 6 -5 1 -5 -13z"/>
<path d="M9320 3614 c0 -5 -20 -17 -44 -27 -37 -15 -42 -21 -38 -42 3 -20 0
-25 -17 -25 -34 0 -58 -17 -66 -47 -9 -33 -6 -86 5 -93 4 -3 17 -24 29 -47 12
-24 26 -43 31 -43 6 0 10 -7 10 -15 0 -20 10 -19 26 3 21 28 18 -7 -5 -44 -20
-32 -23 -70 -6 -82 6 -4 11 -12 12 -19 2 -6 20 -39 42 -73 22 -34 43 -71 46
-81 4 -10 14 -19 23 -19 15 1 15 2 2 13 -21 17 -25 56 -6 63 9 3 16 15 16 25
0 12 7 19 18 19 10 0 24 9 32 20 12 16 26 20 72 20 53 0 58 2 60 23 1 12 5
-25 8 -83 4 -62 6 20 6 200 0 168 -2 270 -3 228 -2 -43 -7 -78 -12 -78 -4 0
-18 11 -31 25 -13 14 -29 25 -36 25 -13 0 -74 89 -74 108 0 19 -18 23 -40 10
-24 -15 -25 -26 -5 -48 14 -15 14 -18 0 -30 -8 -7 -15 -25 -15 -41 0 -16 -4
-29 -10 -29 -5 0 -10 5 -10 10 0 6 -7 10 -15 10 -10 0 -17 15 -22 43 -4 23 -6
45 -5 48 1 4 -9 4 -21 1 -22 -5 -22 -5 -3 16 17 20 20 20 31 5 15 -21 45 -10
45 15 0 11 -7 25 -15 32 -8 7 -15 9 -15 4z m95 -65 c4 -6 4 -13 0 -17 -3 -3
-10 0 -14 7 -7 11 -10 11 -14 0 -4 -10 -6 -9 -6 4 -1 19 24 23 34 6z m-114
-222 c-10 -9 -11 -8 -5 6 3 10 9 15 12 12 3 -3 0 -11 -7 -18z"/>
<path d="M10212 3350 c0 -19 2 -27 5 -17 2 9 2 25 0 35 -3 9 -5 1 -5 -18z"/>
<path d="M10230 3250 c0 -53 -4 -90 -10 -90 -5 0 -10 -18 -10 -40 0 -22 5 -40
10 -40 6 0 10 -16 10 -35 0 -19 -4 -35 -10 -35 -5 0 -10 -16 -10 -35 0 -19 4
-35 9 -35 5 0 12 -10 14 -22 2 -13 5 77 6 200 0 122 -1 222 -4 222 -3 0 -5
-40 -5 -90z"/>
<path d="M9813 3255 c0 -44 2 -61 4 -37 2 23 2 59 0 80 -2 20 -4 1 -4 -43z"/>
<path d="M9616 3288 c-3 -13 -5 -97 -5 -188 l1 -165 13 70 c7 39 11 107 8 150
-2 44 -4 97 -4 118 -1 43 -4 46 -13 15z"/>
<path d="M9200 3156 c0 -2 8 -10 18 -17 15 -13 16 -12 3 4 -13 16 -21 21 -21
13z"/>
<path d="M9698 3153 c7 -3 16 -2 19 1 4 3 -2 6 -13 5 -11 0 -14 -3 -6 -6z"/>
<path d="M9812 3100 c0 -19 2 -27 5 -17 2 9 2 25 0 35 -3 9 -5 1 -5 -18z"/>
<path d="M9268 3057 c12 -21 19 -43 16 -49 -4 -7 -2 -8 4 -4 7 4 13 1 14 -6 0
-7 2 -17 2 -23 3 -18 17 -35 26 -30 9 5 -51 121 -72 140 -6 6 -2 -7 10 -28z"/>
<path d="M9353 2938 c-17 -23 -25 -44 -9 -24 9 11 22 23 28 28 9 5 9 8 2 8 -6
0 -16 -6 -21 -12z"/>
<path d="M9572 2740 c0 -19 2 -27 5 -17 2 9 2 25 0 35 -3 9 -5 1 -5 -18z"/>
<path d="M5495 2660 c10 -11 20 -20 23 -20 3 0 -3 9 -13 20 -10 11 -20 20 -23
20 -3 0 3 -9 13 -20z"/>
<path d="M5580 2650 c-9 -6 -10 -10 -3 -10 6 0 15 5 18 10 8 12 4 12 -15 0z"/>
<path d="M9335 2510 c3 -5 11 -10 16 -10 6 0 7 5 4 10 -3 6 -11 10 -16 10 -6
0 -7 -4 -4 -10z"/>
<path d="M9300 2500 c0 -5 5 -10 11 -10 5 0 7 5 4 10 -3 6 -8 10 -11 10 -2 0
-4 -4 -4 -10z"/>
<path d="M5335 2489 c-4 -6 -5 -12 -2 -15 2 -3 7 2 10 11 7 17 1 20 -8 4z"/>
<path d="M5290 2426 l-25 -31 28 18 c15 9 27 13 27 7 0 -5 4 -10 9 -10 10 0 3
38 -8 44 -3 2 -17 -11 -31 -28z"/>
<path d="M8061 2426 c12 -20 23 -36 25 -36 7 0 -25 58 -36 65 -5 3 -1 -10 11
-29z"/>
<path d="M5386 2387 c3 -10 9 -15 12 -12 3 3 0 11 -7 18 -10 9 -11 8 -5 -6z"/>
<path d="M8095 2365 c4 -11 10 -28 12 -37 3 -10 9 -18 13 -18 8 0 23 -33 26
-55 0 -5 4 -18 9 -27 4 -10 4 -26 1 -35 -6 -14 -2 -13 15 4 22 21 22 22 4 50
-11 15 -35 53 -53 83 -19 30 -31 46 -27 35z"/>
<path d="M5399 2295 c5 -11 17 -29 26 -40 l16 -20 -10 20 c-5 11 -17 29 -26
40 l-16 20 10 -20z"/>
<path d="M5623 2254 c23 -28 22 -33 -15 -65 -18 -16 -28 -28 -23 -28 17 0 61
44 68 68 3 13 3 20 0 17 -4 -3 -16 2 -27 11 -21 18 -21 18 -3 -3z"/>
<path d="M5466 2238 c3 -5 10 -6 15 -3 13 9 11 12 -6 12 -8 0 -12 -4 -9 -9z"/>
<path d="M8461 2234 c0 -11 3 -14 6 -6 3 7 2 16 -1 19 -3 4 -6 -2 -5 -13z"/>
<path d="M10191 1565 c-1 -379 2 -720 6 -757 5 -57 9 -68 24 -68 18 0 19 25
19 695 0 457 -3 695 -10 695 -5 0 -10 7 -10 15 0 8 -4 15 -10 15 -5 0 -10 9
-10 20 0 13 7 20 20 20 13 0 20 7 20 20 0 21 -30 29 -31 8 0 -7 -4 -4 -9 7 -5
11 -9 -276 -9 -670z"/>
<path d="M5427 2192 l-17 -37 20 24 c11 13 20 29 20 37 0 21 -3 17 -23 -24z"/>
<path d="M8304 2213 c2 -10 15 -20 32 -24 16 -4 37 -10 47 -14 10 -4 17 -3 17
5 0 6 -6 8 -12 5 -7 -4 -4 0 6 9 10 8 22 13 27 11 4 -3 10 1 12 7 4 10 6 10 6
1 1 -7 1 -16 0 -19 0 -4 4 -10 9 -13 6 -3 14 -30 20 -58 7 -41 6 -57 -4 -70
-7 -10 -14 -31 -14 -47 0 -21 -13 -42 -49 -77 -40 -41 -54 -49 -86 -49 -30 0
-36 -3 -31 -16 3 -9 6 -17 6 -20 0 -2 8 0 18 3 15 6 16 5 1 -9 -10 -10 -25
-14 -42 -11 -15 3 -27 1 -27 -5 0 -5 -9 -12 -20 -15 -13 -3 -20 0 -20 9 0 21
-34 17 -48 -7 -10 -16 -19 -19 -38 -15 -16 4 -23 3 -20 -3 4 -6 -8 -8 -31 -5
-21 3 -4 -5 37 -16 112 -30 177 -67 255 -145 113 -112 189 -286 198 -455 5
-87 -16 -239 -43 -319 -19 -55 -19 -56 0 -31 l19 25 -6 -24 c-4 -17 -3 -22 5
-17 7 4 12 13 12 20 0 15 58 28 65 15 3 -4 13 -6 23 -4 9 2 20 4 24 4 4 1 14
9 24 18 9 9 24 18 33 19 9 2 47 12 86 23 38 12 97 21 131 21 73 0 194 -29 261
-64 50 -25 140 -106 180 -161 l21 -30 -3 38 c-2 31 0 37 16 37 12 0 19 7 19
20 0 13 7 20 18 20 10 0 24 9 32 20 8 11 22 20 32 20 11 0 18 7 18 20 0 13 7
20 20 20 14 0 20 7 21 23 1 21 1 21 8 -3 4 -14 11 60 15 168 4 107 5 196 2
199 -2 3 -33 7 -68 9 -140 10 -282 67 -381 153 -168 146 -240 297 -240 501 0
78 -13 82 -16 5 -1 -29 -2 -30 -41 -27 -26 3 -40 9 -40 18 0 8 -9 14 -20 14
-16 0 -20 7 -20 35 0 33 -2 35 -32 36 -27 1 -28 2 -8 6 62 10 47 17 -49 23
-90 6 -106 9 -121 28 -10 12 -20 19 -24 17 -3 -3 -4 -2 -1 1 7 11 -15 45 -25
39 -6 -4 -7 1 -3 11 5 13 3 15 -7 9 -8 -5 -11 -4 -7 2 4 6 -5 32 -19 57 l-26
46 -68 0 c-59 0 -68 -2 -66 -17z m226 -183 c0 -5 -2 -10 -4 -10 -3 0 -8 5 -11
10 -3 6 -1 10 4 10 6 0 11 -4 11 -10z m-340 -250 c0 -11 -6 -20 -13 -20 -7 0
-13 9 -13 20 0 11 6 20 13 20 7 0 13 -9 13 -20z m794 -502 c22 -30 20 -45 -1
-20 -24 27 -57 36 -72 18 -9 -11 -4 -17 27 -29 52 -21 66 -38 49 -62 -17 -22
-42 -15 -83 24 -29 28 -32 28 -50 13 -17 -16 -17 -16 -4 3 54 77 104 97 134
53z m-317 -414 c-3 -3 -12 -4 -19 -1 -8 3 -5 6 6 6 11 1 17 -2 13 -5z"/>
<path d="M8933 2218 c-15 -20 -25 -38 -20 -38 3 0 12 11 21 25 17 26 16 35 -1
13z"/>
<path d="M4836 2204 c-5 -14 -4 -15 9 -4 17 14 19 20 6 20 -5 0 -12 -7 -15
-16z"/>
<path d="M5470 2195 c-11 -13 -10 -14 4 -9 9 4 18 0 22 -9 3 -9 12 -18 20 -21
9 -3 6 5 -8 24 -26 35 -22 34 -38 15z"/>
<path d="M5020 2135 c0 -5 5 -17 10 -25 5 -8 10 -10 10 -5 0 6 -5 17 -10 25
-5 8 -10 11 -10 5z"/>
<path d="M5373 2108 c-15 -20 -25 -38 -20 -38 3 0 12 11 21 25 17 26 16 35 -1
13z"/>
<path d="M8040 2115 c0 -2 10 -10 23 -16 20 -11 21 -11 8 4 -13 16 -31 23 -31
12z"/>
<path d="M8331 2102 c-15 -28 -14 -42 3 -42 10 0 17 -16 21 -45 9 -58 26 -72
51 -43 10 12 13 18 7 14 -7 -4 -13 -3 -13 2 0 6 7 12 15 16 19 7 20 79 2 95
-8 6 -28 14 -45 17 -24 5 -32 2 -41 -14z"/>
<path d="M8441 2113 c0 -4 4 -17 9 -28 8 -19 9 -19 9 2 1 12 -3 25 -9 28 -5 3
-10 3 -9 -2z"/>
<path d="M8849 2083 c-13 -16 -12 -17 4 -4 16 13 21 21 13 21 -2 0 -10 -8 -17
-17z"/>
<path d="M5380 2070 c-6 -11 -8 -20 -6 -20 3 0 10 9 16 20 6 11 8 20 6 20 -3
0 -10 -9 -16 -20z"/>
<path d="M8098 2039 c3 -25 9 -39 18 -39 8 0 14 5 14 11 0 5 -5 7 -11 3 -8 -5
-10 1 -7 19 3 15 0 31 -6 36 -8 7 -10 -1 -8 -30z"/>
<path d="M5031 2060 c-1 -3 6 -23 14 -45 8 -22 14 -31 14 -20 0 17 -28 80 -28
65z"/>
<path d="M5326 2035 c-9 -14 -23 -25 -31 -25 -8 0 -15 -5 -15 -11 0 -21 31 -4
51 29 12 17 19 32 16 32 -3 0 -12 -11 -21 -25z"/>
<path d="M8140 2030 c0 -16 4 -30 8 -30 5 0 7 14 4 30 -2 17 -6 30 -8 30 -2 0
-4 -13 -4 -30z"/>
<path d="M5341 2012 c-6 -12 -11 -27 -11 -34 0 -7 7 0 15 16 9 16 13 31 11 33
-2 3 -9 -4 -15 -15z"/>
<path d="M8160 1983 c0 -6 8 -17 18 -24 16 -13 16 -13 2 6 -8 11 -16 22 -17
24 -2 2 -3 0 -3 -6z"/>
<path d="M5270 1945 c-19 -21 -21 -25 -7 -25 9 0 17 5 17 11 0 8 5 8 15 -1 8
-7 15 -9 15 -4 0 4 12 -3 27 -17 27 -25 24 -15 -9 34 -24 33 -28 33 -58 2z"/>
<path d="M7887 1919 c12 -12 24 -21 27 -18 2 2 -8 13 -22 23 l-27 19 22 -24z"/>
<path d="M8194 1932 c8 -13 66 -56 66 -49 0 3 -17 17 -37 33 -20 15 -33 23
-29 16z"/>
<path d="M5020 1895 c-7 -9 -11 -17 -9 -20 3 -2 10 5 17 15 14 24 10 26 -8 5z"/>
<path d="M7983 1893 c9 -2 23 -2 30 0 6 3 -1 5 -18 5 -16 0 -22 -2 -12 -5z"/>
<path d="M4979 1823 c-13 -16 -12 -17 4 -4 16 13 21 21 13 21 -2 0 -10 -8 -17
-17z"/>
<path d="M4670 1796 c0 -2 8 -10 18 -17 15 -13 16 -12 3 4 -13 16 -21 21 -21
13z"/>
<path d="M7883 1793 c20 -2 54 -2 75 0 20 2 3 4 -38 4 -41 0 -58 -2 -37 -4z"/>
<path d="M7798 1783 c6 -2 18 -2 25 0 6 3 1 5 -13 5 -14 0 -19 -2 -12 -5z"/>
<path d="M7730 1770 c-18 -12 -2 -12 25 0 13 6 15 9 5 9 -8 0 -22 -4 -30 -9z"/>
<path d="M9772 1710 c0 -19 2 -27 5 -17 2 9 2 25 0 35 -3 9 -5 1 -5 -18z"/>
<path d="M9572 1645 c0 -16 2 -22 5 -12 2 9 2 23 0 30 -3 6 -5 -1 -5 -18z"/>
<path d="M8219 1581 c-28 -12 -119 -86 -119 -97 0 -7 -6 -14 -14 -17 -8 -3
-21 -20 -30 -39 -21 -40 -34 -148 -18 -148 6 0 13 -9 17 -19 6 -21 65 -91 65
-78 0 4 19 -3 43 -15 23 -13 51 -24 62 -25 11 -1 45 -5 75 -9 49 -5 63 -3 108
20 50 25 78 61 73 93 -1 6 3 14 9 18 19 12 10 70 -21 130 -60 115 -68 128
-104 153 -35 25 -119 44 -146 33z"/>
<path d="M9962 1417 c-8 -9 -47 -36 -88 -59 l-74 -43 0 -145 c0 -97 3 -140 10
-130 5 8 10 45 10 81 0 52 3 66 15 66 8 0 15 -6 15 -14 0 -7 7 -13 15 -13 8 0
15 -9 15 -20 0 -13 7 -20 20 -20 13 0 20 -7 20 -20 0 -11 5 -20 10 -20 6 0 10
9 10 20 0 11 5 20 10 20 6 0 11 -24 11 -52 1 -39 4 -28 10 42 5 52 8 146 7
209 -3 97 -5 112 -16 98z"/>
<path d="M9757 1295 c-10 -7 -47 -19 -83 -26 l-64 -13 1 -240 c1 -187 4 -232
12 -198 5 24 16 42 23 42 8 0 14 7 14 16 0 8 6 22 14 30 17 16 46 19 46 4 0
-5 8 -10 19 -10 17 0 19 -9 20 -87 1 -48 3 -89 5 -91 8 -7 17 289 14 435 -3
144 -4 151 -21 138z"/>
<path d="M8950 781 c0 -33 -4 -63 -10 -66 -17 -10 -12 -75 5 -75 8 0 15 -4 15
-10 0 -19 75 -11 90 9 9 13 22 18 40 16 19 -2 32 4 46 23 10 14 25 31 32 39 7
7 12 25 10 40 -2 22 -14 34 -53 55 -52 29 -85 35 -85 18 0 -7 -6 -7 -19 0 -11
5 -31 10 -45 10 -25 0 -26 -2 -26 -59z"/>
<path d="M8560 805 c0 -8 -6 -15 -14 -15 -7 0 -16 -10 -19 -21 -5 -20 -4 -20
22 5 15 14 34 26 42 26 12 0 12 2 -1 10 -21 14 -30 12 -30 -5z"/>
<path d="M8464 751 c4 -5 0 -11 -6 -14 -7 -2 -9 -8 -5 -13 4 -5 12 -2 17 6 13
20 12 30 -1 30 -5 0 -8 -4 -5 -9z"/>
<path d="M8097 722 c-13 -15 -32 -39 -42 -54 -17 -27 -17 -28 8 -39 31 -14 77
-4 77 17 0 8 7 17 15 20 19 8 11 41 -15 66 -17 16 -19 15 -43 -10z"/>
<path d="M8481 704 c0 -11 3 -14 6 -6 3 7 2 16 -1 19 -3 4 -6 -2 -5 -13z"/>
<path d="M8450 681 c0 -6 4 -13 10 -16 6 -3 7 1 4 9 -7 18 -14 21 -14 7z"/>
<path d="M8379 634 c-23 -25 -23 -26 -2 -13 13 7 25 19 27 26 8 19 2 16 -25
-13z"/>
<path d="M8420 641 c0 -17 18 -21 24 -6 3 9 0 15 -9 15 -8 0 -15 -4 -15 -9z"/>
<path d="M8395 610 c3 -5 8 -10 11 -10 2 0 4 5 4 10 0 6 -5 10 -11 10 -5 0 -7
-4 -4 -10z"/>
<path d="M8330 585 c-10 -13 -9 -15 8 -15 15 0 20 5 16 15 -4 8 -7 15 -9 15
-1 0 -8 -7 -15 -15z"/>
</g>
</svg>
