<svg width="28" height="28" viewBox="0 0 28 28" fill="none" xmlns="http://www.w3.org/2000/svg">
<g id="flat-color-icons:google">
<path id="Vector" d="M25.4397 11.715H24.4999V11.6666H13.9999V16.3333H20.5933C19.6314 19.0498 17.0467 20.9999 13.9999 20.9999C10.1342 20.9999 6.99992 17.8657 6.99992 13.9999C6.99992 10.1342 10.1342 6.99992 13.9999 6.99992C15.7843 6.99992 17.4078 7.67309 18.6438 8.77267L21.9438 5.47275C19.8601 3.53084 17.0729 2.33325 13.9999 2.33325C7.557 2.33325 2.33325 7.557 2.33325 13.9999C2.33325 20.4428 7.557 25.6666 13.9999 25.6666C20.4428 25.6666 25.6666 20.4428 25.6666 13.9999C25.6666 13.2177 25.5861 12.4541 25.4397 11.715Z" fill="#FFC107"/>
<path id="Vector_2" d="M3.67847 8.56967L7.51155 11.3808C8.54872 8.81292 11.0606 6.99992 14 6.99992C15.7844 6.99992 17.4078 7.67309 18.6439 8.77267L21.9438 5.47275C19.8601 3.53084 17.073 2.33325 14 2.33325C9.5188 2.33325 5.63263 4.86317 3.67847 8.56967Z" fill="#FF3D00"/>
<path id="Vector_3" d="M14 25.6666C17.0135 25.6666 19.7517 24.5133 21.8219 22.6379L18.2111 19.5824C17.0004 20.5031 15.521 21.0011 14 20.9999C10.9655 20.9999 8.38894 19.065 7.41827 16.3647L3.61377 19.296C5.5446 23.0742 9.46577 25.6666 14 25.6666Z" fill="#4CAF50"/>
<path id="Vector_4" d="M25.4398 11.7152H24.5V11.6667H14V16.3334H20.5934C20.1333 17.6263 19.3045 18.7561 18.2093 19.5832L18.2111 19.582L21.8219 22.6375C21.5664 22.8697 25.6667 19.8334 25.6667 14.0001C25.6667 13.2178 25.5862 12.4542 25.4398 11.7152Z" fill="#1976D2"/>
</g>
</svg>
