<svg width="48" height="47" viewBox="0 0 48 47" fill="none" xmlns="http://www.w3.org/2000/svg">
<path id="Vector" d="M13.819 0H33.559C41.079 0 47.189 6.11 47.189 13.63V33.37C47.189 36.9849 45.753 40.4517 43.1968 43.0079C40.6407 45.564 37.1739 47 33.559 47H13.819C6.29896 47 0.188965 40.89 0.188965 33.37V13.63C0.188965 10.0151 1.62498 6.54826 4.1811 3.99213C6.73722 1.43601 10.2041 0 13.819 0ZM13.349 4.7C11.1052 4.7 8.9534 5.59132 7.36684 7.17788C5.78028 8.76443 4.88896 10.9163 4.88896 13.16V33.84C4.88896 38.5165 8.67246 42.3 13.349 42.3H34.029C36.2727 42.3 38.4245 41.4087 40.0111 39.8221C41.5976 38.2356 42.489 36.0837 42.489 33.84V13.16C42.489 8.4835 38.7055 4.7 34.029 4.7H13.349ZM36.0265 8.225C36.8055 8.225 37.5527 8.53449 38.1036 9.08537C38.6545 9.63626 38.964 10.3834 38.964 11.1625C38.964 11.9416 38.6545 12.6887 38.1036 13.2396C37.5527 13.7905 36.8055 14.1 36.0265 14.1C35.2474 14.1 34.5002 13.7905 33.9493 13.2396C33.3984 12.6887 33.089 11.9416 33.089 11.1625C33.089 10.3834 33.3984 9.63626 33.9493 9.08537C34.5002 8.53449 35.2474 8.225 36.0265 8.225ZM23.689 11.75C26.8053 11.75 29.7939 12.9879 31.9975 15.1915C34.201 17.395 35.439 20.3837 35.439 23.5C35.439 26.6163 34.201 29.605 31.9975 31.8085C29.7939 34.0121 26.8053 35.25 23.689 35.25C20.5727 35.25 17.584 34.0121 15.3805 31.8085C13.1769 29.605 11.939 26.6163 11.939 23.5C11.939 20.3837 13.1769 17.395 15.3805 15.1915C17.584 12.9879 20.5727 11.75 23.689 11.75ZM23.689 16.45C21.8192 16.45 20.026 17.1928 18.7039 18.5149C17.3817 19.837 16.639 21.6302 16.639 23.5C16.639 25.3698 17.3817 27.163 18.7039 28.4851C20.026 29.8072 21.8192 30.55 23.689 30.55C25.5587 30.55 27.3519 29.8072 28.6741 28.4851C29.9962 27.163 30.739 25.3698 30.739 23.5C30.739 21.6302 29.9962 19.837 28.6741 18.5149C27.3519 17.1928 25.5587 16.45 23.689 16.45Z" fill="white"/>
</svg>
