<svg width="64" height="63" viewBox="0 0 64 63" fill="none" xmlns="http://www.w3.org/2000/svg">
<g id="mdi:linkedin">
<path id="Vector" d="M50.0583 7.875C51.4507 7.875 52.7861 8.42812 53.7707 9.41269C54.7552 10.3973 55.3083 11.7326 55.3083 13.125V49.875C55.3083 51.2674 54.7552 52.6027 53.7707 53.5873C52.7861 54.5719 51.4507 55.125 50.0583 55.125H13.3083C11.916 55.125 10.5806 54.5719 9.59604 53.5873C8.61147 52.6027 8.05835 51.2674 8.05835 49.875V13.125C8.05835 11.7326 8.61147 10.3973 9.59604 9.41269C10.5806 8.42812 11.916 7.875 13.3083 7.875H50.0583ZM48.7458 48.5625V34.65C48.7458 32.3804 47.8443 30.2038 46.2394 28.5989C44.6346 26.9941 42.4579 26.0925 40.1884 26.0925C37.9571 26.0925 35.3583 27.4575 34.0984 29.505V26.5912H26.7746V48.5625H34.0984V35.6213C34.0984 33.6 35.7259 31.9463 37.7471 31.9463C38.7218 31.9463 39.6565 32.3334 40.3457 33.0226C41.0349 33.7118 41.4221 34.6466 41.4221 35.6213V48.5625H48.7458ZM18.2434 22.47C19.413 22.47 20.5347 22.0054 21.3617 21.1783C22.1887 20.3513 22.6534 19.2296 22.6534 18.06C22.6534 15.6188 20.6846 13.6238 18.2434 13.6238C17.0668 13.6238 15.9384 14.0911 15.1064 14.9231C14.2745 15.7551 13.8071 16.8834 13.8071 18.06C13.8071 20.5013 15.8021 22.47 18.2434 22.47ZM21.8921 48.5625V26.5912H14.6208V48.5625H21.8921Z" fill="white"/>
</g>
</svg>
