<svg width="31" height="37" viewBox="0 0 31 37" fill="none" xmlns="http://www.w3.org/2000/svg">
<g id="Group 21">
<path id="Vector 19" d="M19.7964 0H2V29.6985H19.7964C27.9579 29.5171 29.9982 24.2576 29.9982 21.6504C30.0889 16.7536 26.711 14.6225 25.0107 14.1691C28.4566 11.63 28.7135 8.80376 28.4113 7.70801C28.4113 1.99501 22.668 0.188922 19.7964 0Z" fill="white"/>
<path id="Vector 20" d="M10.1614 11.7889V5.89453H17.416C18.7762 5.89453 20.4765 6.688 20.4765 9.06842C20.4765 10.9727 18.4362 11.6755 17.416 11.7889H10.1614Z" fill="#A54DE4"/>
<path id="Vector 21" d="M10.2747 23.5775V17.6831H18.4062C20.2497 17.6831 21.8367 18.3632 21.8367 20.857C21.8367 22.6706 20.3631 23.5775 18.4062 23.5775H10.2747Z" fill="#A54DE4"/>
<path id="Vector 22" d="M2.22681 34.2607H28.7514" stroke="white" stroke-width="4" stroke-linecap="round"/>
</g>
</svg>
