<svg width="88" height="88" viewBox="0 0 88 88" fill="none" xmlns="http://www.w3.org/2000/svg">
<g id="mdi:paper-text-outline">
<path id="Vector" d="M55 11H18.3333C16.3884 11 14.5231 11.7726 13.1479 13.1479C11.7726 14.5231 11 16.3884 11 18.3333V69.6667C11 71.6116 11.7726 73.4768 13.1479 74.8521C14.5231 76.2274 16.3884 77 18.3333 77H69.6667C71.6116 77 73.4768 76.2274 74.8521 74.8521C76.2274 73.4768 77 71.6116 77 69.6667V33L55 11ZM69.6667 69.6667H18.3333V18.3333H51.3333V36.6667H69.6667M62.3333 51.3333H25.6667V44H62.3333M51.3333 62.3333H25.6667V55H51.3333" fill="url(#paint0_linear_82_32)"/>
</g>
<defs>
<linearGradient id="paint0_linear_82_32" x1="44" y1="11" x2="44" y2="77" gradientUnits="userSpaceOnUse">
<stop stop-color="#A54DE4"/>
<stop offset="1" stop-color="#594EDC"/>
</linearGradient>
</defs>
</svg>
