<svg width="88" height="88" viewBox="0 0 88 88" fill="none" xmlns="http://www.w3.org/2000/svg">
<g id="pajamas:planning">
<path id="Vector" fill-rule="evenodd" clip-rule="evenodd" d="M61.875 5.5C62.969 5.5 64.0182 5.9346 64.7918 6.70818C65.5654 7.48177 66 8.53098 66 9.625V16.5H77C78.4587 16.5 79.8576 17.0795 80.8891 18.1109C81.9205 19.1424 82.5 20.5413 82.5 22V77C82.5 78.4587 81.9205 79.8576 80.8891 80.8891C79.8576 81.9205 78.4587 82.5 77 82.5H11C9.54131 82.5 8.14236 81.9205 7.11091 80.8891C6.07946 79.8576 5.5 78.4587 5.5 77V22C5.5 20.5413 6.07946 19.1424 7.11091 18.1109C8.14236 17.0795 9.54131 16.5 11 16.5H22V9.625C22 8.53098 22.4346 7.48177 23.2082 6.70818C23.9818 5.9346 25.031 5.5 26.125 5.5C27.219 5.5 28.2682 5.9346 29.0418 6.70818C29.8154 7.48177 30.25 8.53098 30.25 9.625V16.5H57.75V9.625C57.75 8.53098 58.1846 7.48177 58.9582 6.70818C59.7318 5.9346 60.781 5.5 61.875 5.5ZM13.75 41.25V74.25H74.25V41.25H13.75ZM13.75 33H74.25V24.75H13.75V33ZM56.54 49.335C57.3125 50.1084 57.7464 51.1569 57.7464 52.25C57.7464 53.3431 57.3125 54.3916 56.54 55.165L44.165 67.54C43.3916 68.3125 42.3431 68.7464 41.25 68.7464C40.1569 68.7464 39.1084 68.3125 38.335 67.54L31.46 60.665C31.0547 60.2874 30.7297 59.832 30.5042 59.326C30.2787 58.82 30.1575 58.2737 30.1477 57.7199C30.138 57.166 30.2399 56.6158 30.4473 56.1022C30.6548 55.5886 30.9636 55.122 31.3553 54.7303C31.747 54.3386 32.2136 54.0298 32.7272 53.8223C33.2408 53.6149 33.791 53.513 34.3449 53.5227C34.8987 53.5325 35.445 53.6537 35.951 53.8792C36.457 54.1047 36.9124 54.4297 37.29 54.835L41.25 58.795L50.71 49.335C51.4834 48.5625 52.5319 48.1286 53.625 48.1286C54.7181 48.1286 55.7666 48.5625 56.54 49.335Z" fill="url(#paint0_linear_82_30)"/>
</g>
<defs>
<linearGradient id="paint0_linear_82_30" x1="44" y1="5.5" x2="44" y2="82.5" gradientUnits="userSpaceOnUse">
<stop stop-color="#A54DE4"/>
<stop offset="1" stop-color="#594EDC"/>
</linearGradient>
</defs>
</svg>
