<svg width="48" height="37" viewBox="0 0 48 37" fill="none" xmlns="http://www.w3.org/2000/svg">
<path id="Vector" d="M47.189 4.35294C45.459 5.11471 43.5943 5.61529 41.6622 5.85471C43.6393 4.70118 45.167 2.87294 45.8859 0.674706C44.0212 1.76294 41.9543 2.52471 39.775 2.96C38.0001 1.08824 35.5064 0 32.6756 0C27.3959 0 23.0824 4.17882 23.0824 9.33706C23.0824 10.0771 23.1722 10.7953 23.3295 11.47C15.3314 11.0782 8.20952 7.35647 3.46908 1.71941C2.63782 3.09059 2.16602 4.70118 2.16602 6.39882C2.16602 9.64176 3.85101 12.5147 6.45713 14.1471C4.86201 14.1471 3.37921 13.7118 2.07615 13.0588V13.1241C2.07615 17.6512 5.4012 21.4382 9.80464 22.2871C8.39089 22.6619 6.90667 22.714 5.4686 22.4394C6.07881 24.2948 7.27387 25.9183 8.8858 27.0817C10.4977 28.245 12.4455 28.8898 14.4552 28.9253C11.0485 31.538 6.82557 32.9503 2.48055 32.93C1.71669 32.93 0.952827 32.8865 0.188965 32.7994C4.45761 35.4547 9.53505 37 14.9719 37C32.6756 37 42.4036 22.7659 42.4036 10.4253C42.4036 10.0118 42.4036 9.62 42.3811 9.20647C44.2683 7.90059 45.8859 6.24647 47.189 4.35294Z" fill="white"/>
</svg>
