<svg width="53" height="53" viewBox="0 0 53 53" fill="none" xmlns="http://www.w3.org/2000/svg">
<g id="ic:baseline-whatsapp">
<path id="Vector" d="M41.4639 11.1384C39.4775 9.13189 37.1115 7.54099 34.5038 6.45849C31.8962 5.37599 29.099 4.82355 26.2756 4.83338C14.4456 4.83338 4.80395 14.475 4.80395 26.305C4.80395 30.0967 5.80062 33.78 7.66395 37.03L4.63062 48.1667L16.0056 45.1767C19.1473 46.8884 22.6789 47.7984 26.2756 47.7984C38.1056 47.7984 47.7473 38.1567 47.7473 26.3267C47.7473 20.585 45.5156 15.19 41.4639 11.1384ZM26.2756 44.1584C23.0689 44.1584 19.9273 43.2917 17.1756 41.6667L16.5256 41.2767L9.76561 43.0534L11.5639 36.4667L11.1306 35.795C9.34906 32.9501 8.40309 29.6617 8.40061 26.305C8.40061 16.4684 16.4173 8.45171 26.2539 8.45171C31.0206 8.45171 35.5056 10.315 38.8639 13.695C40.5268 15.3503 41.8446 17.3191 42.741 19.4875C43.6373 21.6558 44.0943 23.9804 44.0856 26.3267C44.1289 36.1634 36.1123 44.1584 26.2756 44.1584ZM36.0689 30.8117C35.5273 30.5517 32.8839 29.2517 32.4073 29.0567C31.9089 28.8834 31.5623 28.7967 31.1939 29.3167C30.8256 29.8584 29.8073 31.0717 29.5039 31.4184C29.2006 31.7867 28.8756 31.83 28.3339 31.5484C27.7923 31.2884 26.0589 30.7034 24.0223 28.8834C22.4189 27.4534 21.3573 25.6984 21.0323 25.1567C20.7289 24.615 20.9889 24.3334 21.2706 24.0517C21.5089 23.8134 21.8123 23.4234 22.0723 23.12C22.3323 22.8167 22.4406 22.5784 22.6139 22.2317C22.7873 21.8634 22.7006 21.56 22.5706 21.3C22.4406 21.04 21.3573 18.3967 20.9239 17.3134C20.4906 16.2734 20.0356 16.4034 19.7106 16.3817H18.6706C18.3023 16.3817 17.7389 16.5117 17.2406 17.0534C16.7639 17.595 15.3773 18.895 15.3773 21.5384C15.3773 24.1817 17.3056 26.7384 17.5656 27.085C17.8256 27.4534 21.3573 32.87 26.7306 35.1884C28.0089 35.7517 29.0056 36.0767 29.7856 36.3151C31.0639 36.7267 32.2339 36.6617 33.1656 36.5317C34.2056 36.38 36.3506 35.2317 36.7839 33.975C37.2389 32.7184 37.2389 31.6567 37.0873 31.4184C36.9356 31.18 36.6106 31.0717 36.0689 30.8117Z" fill="white"/>
</g>
</svg>
